<?xml version="1.0" standalone="no"?>
<!DOCTYPE svg PUBLIC "-//W3C//DTD SVG 20010904//EN"
 "http://www.w3.org/TR/2001/REC-SVG-20010904/DTD/svg10.dtd">
<svg version="1.0" xmlns="http://www.w3.org/2000/svg"
 width="300.000000pt" height="166.000000pt" viewBox="0 0 300.000000 166.000000"
 preserveAspectRatio="xMidYMid meet">
<metadata>
Created by potrace 1.10, written by Peter Selinger 2001-2011
</metadata>
<g transform="translate(0.000000,166.000000) scale(0.100000,-0.100000)"
fill="#000000" stroke="none">
<path d="M2643 1374 c-3 -9 -3 -87 -1 -175 3 -88 3 -157 0 -155 -2 3 -23 79
-46 168 l-42 163 -47 3 -47 3 0 -330 0 -331 45 0 45 0 1 183 c1 134 3 173 10
147 6 -19 28 -99 51 -177 l41 -143 39 0 38 0 0 330 0 330 -40 0 c-28 0 -43 -5
-47 -16z m-118 -54 c4 -6 21 -64 39 -130 30 -110 55 -160 78 -160 4 0 17 15
28 33 l20 32 0 -154 c0 -95 -4 -151 -9 -145 -5 5 -21 47 -36 94 -40 130 -55
169 -72 186 -14 14 -18 14 -35 -4 -12 -11 -23 -42 -28 -73 -5 -38 -8 2 -9 139
-1 176 4 214 24 182z"/>
<path d="M2260 1361 l-65 -6 -3 -328 -2 -329 92 7 c130 9 128 8 128 62 l0 46
-60 -6 -60 -7 0 100 0 99 43 3 42 3 3 48 3 48 -45 -6 -46 -7 0 90 0 89 60 7
60 7 0 44 0 45 -42 -2 c-24 -1 -72 -4 -108 -7z m40 -51 c0 -5 -6 -13 -14 -17
-25 -15 -36 -52 -36 -120 0 -64 2 -72 29 -97 l30 -29 -30 -29 c-27 -28 -29
-34 -29 -109 0 -90 8 -112 51 -138 l30 -18 -37 -6 c-22 -4 -43 -2 -51 5 -18
15 -19 538 -1 556 14 14 58 16 58 2z"/>
<path d="M1958 1323 l-28 -4 0 -323 c0 -177 2 -325 5 -327 2 -3 52 1 110 9
l105 15 0 49 c0 45 -2 48 -22 44 -13 -3 -40 -8 -60 -11 l-38 -6 0 281 0 280
-22 -1 c-13 -1 -35 -4 -50 -6z m33 -325 c1 -112 1 -206 0 -210 -1 -9 58 -58
72 -59 7 -1 -6 -5 -28 -9 -23 -5 -44 -4 -50 1 -12 12 -16 479 -4 479 5 0 10
-91 10 -202z"/>
<path d="M1700 1281 c-19 -10 -45 -36 -57 -57 -22 -37 -23 -49 -23 -279 0
-266 3 -278 62 -309 31 -17 41 -18 75 -8 22 7 53 22 68 34 51 40 55 66 55 329
l0 241 -34 34 c-40 40 -90 45 -146 15z m119 -42 c22 -20 22 -23 19 -264 -3
-241 -3 -244 -27 -269 -15 -16 -40 -28 -69 -32 -40 -6 -48 -4 -64 16 -16 20
-18 45 -18 252 0 250 4 273 58 302 38 21 75 19 101 -5z"/>
<path d="M1709 1219 c-23 -20 -24 -26 -29 -207 -6 -238 -2 -278 33 -308 30
-25 48 -23 85 9 22 20 22 25 22 248 l0 228 -25 26 c-31 30 -54 32 -86 4z m71
-249 c0 -189 -3 -230 -15 -240 -8 -7 -22 -10 -30 -6 -13 5 -15 39 -15 235 0
206 2 231 17 239 41 23 43 10 43 -228z"/>
<path d="M1503 1253 l-33 -4 0 -331 0 -330 43 7 c23 4 45 9 50 12 4 2 7 150 7
329 0 360 7 326 -67 317z m23 -309 c1 -135 -2 -257 -6 -272 l-8 -27 -1 25 c-1
24 -2 446 -1 504 0 16 3 26 8 22 4 -4 8 -118 8 -252z"/>
<path d="M1220 1207 l-65 -12 -3 -328 c-2 -278 0 -327 12 -327 8 0 48 6 90 14
154 30 158 40 154 366 -3 238 -4 250 -24 270 -26 27 -79 32 -164 17z m130 -47
c19 -19 20 -34 21 -222 1 -112 0 -214 -1 -228 -3 -46 -33 -94 -64 -102 l-29
-7 34 28 c33 28 34 32 39 112 3 46 4 148 2 226 -3 137 -4 142 -29 167 -32 32
-53 33 -83 1 -22 -24 -23 -29 -24 -247 l-2 -223 29 -29 c32 -32 23 -48 -23
-44 l-25 3 -1 272 c0 150 2 277 6 283 6 9 66 24 118 29 6 0 21 -8 32 -19z
m-40 -269 c0 -199 -2 -230 -16 -235 -44 -17 -44 -19 -44 229 l0 235 30 0 30 0
0 -229z"/>
<path d="M973 1170 c-24 -3 -45 -9 -48 -12 -6 -5 -92 -657 -88 -662 1 -1 22 0
45 3 l43 6 6 52 c9 73 15 83 43 83 23 0 26 -5 32 -61 l7 -61 46 7 c25 4 48 8
50 10 5 6 -80 629 -87 636 -4 3 -26 2 -49 -1z m22 -65 c3 -14 7 -35 10 -48 2
-13 7 -55 10 -93 4 -38 8 -75 10 -81 3 -7 0 -13 -6 -13 -6 0 -13 9 -16 20 -3
11 -10 20 -15 20 -7 0 -8 -31 -4 -90 7 -87 7 -90 -14 -90 -19 0 -21 4 -16 43
3 23 8 67 11 97 l5 55 -20 -25 -20 -25 0 30 c0 56 21 199 32 212 16 20 27 16
33 -12z m62 -452 c3 -42 2 -73 -3 -73 -6 0 -11 12 -12 28 -2 27 -42 72 -66 72
-6 0 -27 -11 -46 -25 -19 -14 -36 -25 -38 -25 -6 0 10 95 18 104 5 4 13 -1 19
-13 23 -42 84 -19 98 37 l6 27 9 -30 c5 -16 11 -63 15 -102z"/>
<path d="M633 1132 l-43 -3 0 -330 0 -331 38 6 c20 3 67 8 105 11 l67 7 0 49
c0 43 -2 50 -17 45 -10 -3 -35 -6 -56 -8 l-38 -3 1 277 c0 152 -3 278 -7 280
-4 2 -27 2 -50 0z m15 -279 c0 -120 1 -230 1 -245 1 -31 36 -68 63 -68 39 0 7
-16 -36 -19 l-46 -2 0 276 c0 151 4 275 9 275 5 0 9 -98 9 -217z"/>
<path d="M350 1113 c-68 -35 -75 -62 -78 -298 -4 -231 5 -299 42 -334 35 -33
91 -39 127 -12 23 17 30 19 35 8 3 -9 15 -12 34 -9 l30 4 0 164 0 164 -47 0
c-81 0 -93 -7 -93 -51 0 -33 3 -39 20 -39 19 0 21 -5 18 -76 -2 -61 -7 -79
-21 -88 -15 -9 -21 -7 -33 8 -11 16 -14 63 -14 237 0 229 3 246 47 237 15 -3
18 -15 21 -76 l3 -72 45 0 46 0 -4 90 c-3 85 -5 91 -34 121 -39 39 -95 48
-144 22z m114 -49 c20 -20 29 -53 23 -90 -3 -25 -4 -24 -6 8 -1 27 -9 43 -32
62 -39 33 -49 33 -84 -4 l-29 -31 1 -225 1 -225 28 -30 c33 -35 24 -51 -14
-22 l-27 20 -3 252 -2 251 24 25 c30 30 95 34 120 9z m24 -312 c9 -6 12 -38
10 -123 l-3 -114 -28 -2 c-24 -2 -26 1 -17 17 6 10 15 22 20 25 17 10 12 138
-6 163 -22 31 -7 53 24 34z"/>
<path d="M1984 551 c-37 -23 -54 -65 -54 -135 0 -60 25 -116 60 -133 34 -17
651 -18 683 -2 46 24 57 49 57 136 0 77 -2 85 -29 115 l-29 33 -329 3 c-309 2
-330 1 -359 -17z m96 -66 c0 -8 -9 -15 -20 -15 -11 0 -20 -7 -20 -15 0 -8 9
-15 20 -15 11 0 20 -7 20 -15 0 -8 -9 -15 -20 -15 -16 0 -19 -5 -13 -30 5 -26
3 -30 -16 -30 -20 0 -21 5 -21 75 l0 75 35 0 c24 0 35 -5 35 -15z m84 1 c-3
-8 -14 -16 -25 -19 -25 -7 -25 -27 1 -27 11 0 20 -7 20 -15 0 -8 -7 -15 -15
-15 -8 0 -15 -7 -15 -15 0 -8 6 -15 14 -15 8 0 16 -7 20 -15 4 -12 -3 -15 -34
-15 l-40 0 0 75 0 75 40 0 c30 0 38 -3 34 -14z m84 2 c9 -9 12 -9 12 0 0 8 17
12 45 12 33 0 45 -4 45 -15 0 -8 -7 -15 -15 -15 -12 0 -15 -13 -15 -60 0 -50
-3 -60 -17 -60 -16 0 -18 8 -15 60 3 50 1 60 -12 60 -9 0 -16 -4 -16 -10 0
-14 -27 -12 -33 3 -3 9 -7 9 -17 0 -10 -10 -8 -14 13 -24 30 -13 42 -39 32
-68 -13 -41 -85 -33 -85 9 0 22 26 28 33 8 2 -7 8 -9 13 -5 5 5 -3 17 -19 29
-43 31 -32 88 18 88 12 0 26 -5 33 -12z m142 -63 c0 -70 -1 -75 -21 -75 -20 0
-21 4 -15 46 3 26 6 60 6 75 0 19 5 29 15 29 12 0 15 -15 15 -75z m44 53 c3
-13 6 -41 7 -63 1 -43 4 -36 14 38 4 33 11 47 22 47 13 0 15 -9 9 -52 -3 -29
-6 -63 -6 -75 0 -20 -5 -23 -35 -23 -32 0 -35 3 -35 29 0 15 -3 49 -6 75 -6
37 -4 46 8 46 9 0 18 -10 22 -22z m140 10 c3 -7 7 -41 10 -75 5 -58 4 -63 -14
-63 -13 0 -20 7 -20 20 0 11 -4 20 -10 20 -5 0 -10 -9 -10 -20 0 -14 -7 -20
-21 -20 -15 0 -19 5 -15 18 2 9 7 43 11 75 6 55 7 57 36 57 16 0 31 -6 33 -12z
m64 -48 c-4 -53 -2 -60 14 -60 10 0 18 -7 18 -15 0 -10 -11 -15 -35 -15 l-35
0 0 75 c0 70 1 75 21 75 20 0 21 -4 17 -60z"/>
</g>
</svg>
