<?xml version="1.0" standalone="no"?>
<!DOCTYPE svg PUBLIC "-//W3C//DTD SVG 20010904//EN"
 "http://www.w3.org/TR/2001/REC-SVG-20010904/DTD/svg10.dtd">
<svg version="1.0" xmlns="http://www.w3.org/2000/svg"
 width="900.000000pt" height="498.000000pt" viewBox="0 0 900.000000 498.000000"
 preserveAspectRatio="xMidYMid meet">
<metadata>
Created by potrace 1.10, written by Peter Selinger 2001-2011
</metadata>
<g transform="translate(0.000000,498.000000) scale(0.100000,-0.100000)"
fill="#FFFFF" stroke="none">
<path d="M7943 4138 l-23 -11 0 -474 c0 -398 -2 -473 -14 -473 -15 0 -26 21
-26 50 0 10 -6 40 -14 66 -8 27 -22 78 -31 114 -16 64 -30 118 -59 223 -13 48
-23 86 -62 237 -8 30 -21 76 -29 101 -8 26 -15 54 -15 63 0 8 -7 34 -17 57
l-16 41 -124 -4 c-94 -3 -127 -7 -134 -18 -5 -9 -9 -412 -9 -981 0 -791 2
-968 13 -972 20 -7 238 10 248 20 5 5 10 231 11 503 2 322 7 495 13 495 6 0
11 -13 13 -30 1 -16 9 -48 16 -70 7 -22 21 -67 31 -100 9 -33 23 -78 30 -100
6 -22 20 -67 30 -100 9 -33 23 -78 30 -100 6 -22 20 -67 29 -100 10 -33 22
-73 28 -90 5 -16 14 -46 18 -65 4 -19 13 -48 18 -65 9 -25 23 -75 48 -163 3
-10 31 -12 116 -10 l113 3 0 980 0 980 -105 2 c-61 1 -115 -3 -127 -9z"/>
<path d="M6920 4084 c-69 -8 -167 -19 -218 -24 -52 -6 -102 -15 -113 -20 -19
-11 -19 -32 -17 -978 l3 -967 75 0 c41 0 120 6 175 12 55 7 160 17 234 24 74
6 140 13 148 16 10 4 13 37 13 141 l0 135 -127 -8 c-71 -4 -150 -9 -178 -9
l-50 -1 -3 288 c-2 225 0 288 10 292 7 2 57 9 111 15 143 15 137 9 137 144 0
88 -3 116 -15 126 -11 9 -37 9 -121 0 -65 -7 -109 -9 -115 -3 -5 5 -8 119 -7
269 3 251 4 259 23 261 11 1 91 10 178 19 l157 18 0 133 0 133 -87 -1 c-49 -1
-144 -8 -213 -15z"/>
<path d="M5940 3965 c-36 -8 -80 -14 -98 -14 -25 -1 -35 -7 -42 -27 -6 -16
-10 -380 -10 -968 0 -907 1 -944 19 -960 14 -13 24 -14 45 -6 15 5 46 10 68
10 23 0 80 7 127 15 101 17 233 35 311 42 30 3 61 10 68 15 14 12 17 234 3
256 -8 14 -108 8 -292 -15 -42 -5 -47 -3 -52 18 -4 13 -7 390 -7 837 l0 812
-37 -1 c-21 -1 -67 -7 -103 -14z"/>
<path d="M5161 3869 c-81 -30 -157 -85 -204 -148 -53 -72 -62 -87 -87 -158
-19 -55 -20 -79 -20 -753 0 -561 3 -700 14 -721 7 -14 16 -37 20 -52 7 -31 82
-112 122 -134 39 -20 128 -43 169 -43 141 0 321 109 390 235 67 122 65 97 65
844 0 731 2 706 -53 807 -22 42 -91 100 -146 125 -60 26 -194 25 -270 -2z
m147 -285 l22 -15 0 -680 0 -679 -42 -30 c-49 -36 -83 -38 -115 -8 l-23 21 0
672 c0 600 2 673 16 693 29 42 101 55 142 26z"/>
<path d="M4610 3759 c-19 -6 -71 -14 -115 -19 -56 -6 -83 -14 -92 -26 -10 -14
-13 -217 -13 -975 0 -837 2 -958 15 -969 12 -10 29 -9 87 3 40 9 92 18 116 21
24 2 52 12 63 22 18 17 19 43 19 974 0 730 -3 959 -12 968 -14 14 -19 14 -68
1z"/>
<path d="M3805 3628 c-75 -13 -224 -37 -275 -43 -88 -11 -80 85 -80 -995 0
-843 2 -959 15 -970 12 -10 33 -9 108 4 50 9 129 23 173 31 45 8 92 15 106 15
27 0 115 29 168 56 104 53 185 187 201 333 11 105 11 1196 0 1302 -8 79 -43
165 -84 204 -69 68 -185 90 -332 63z m101 -292 c18 -14 19 -34 22 -650 1 -350
-1 -651 -6 -668 -11 -44 -71 -79 -127 -76 l-40 3 -3 685 -2 685 21 18 c26 21
107 23 135 3z"/>
<path d="M2945 3500 c-102 -11 -186 -30 -190 -43 -4 -17 -44 -306 -80 -587 -9
-69 -23 -172 -30 -230 -8 -58 -16 -123 -18 -145 -2 -22 -9 -76 -16 -120 -12
-85 -32 -230 -56 -422 -9 -65 -20 -147 -26 -183 -5 -36 -14 -112 -20 -169 -11
-114 -8 -123 41 -116 14 3 60 7 102 11 112 8 117 15 129 149 6 61 16 139 22
175 l12 65 50 11 c69 17 125 17 125 2 0 -7 7 -62 15 -123 8 -60 15 -134 15
-163 0 -66 8 -70 109 -52 42 8 101 16 131 19 l55 6 3 53 c2 30 -4 88 -12 129
-9 41 -16 91 -16 111 0 19 -7 74 -15 121 -17 102 -34 229 -45 326 -4 39 -13
104 -19 145 -34 216 -41 268 -41 294 0 16 -7 68 -15 115 -8 47 -21 140 -30
206 -9 66 -22 163 -31 215 -8 52 -14 114 -14 137 0 44 -20 74 -48 72 -9 -1
-48 -5 -87 -9z m-15 -920 c0 -41 7 -141 17 -221 9 -80 13 -154 10 -163 -5 -12
-19 -16 -56 -16 -27 0 -52 4 -55 8 -3 5 1 49 9 98 8 49 15 112 15 140 0 46 22
188 37 238 11 37 23 -7 23 -84z"/>
<path d="M1881 3383 c-52 -2 -101 -9 -108 -15 -11 -8 -13 -196 -13 -984 l0
-974 27 0 c29 0 153 11 403 36 85 9 164 16 175 17 19 2 20 10 23 136 2 90 -1
137 -8 141 -7 4 -30 4 -53 0 -23 -5 -94 -10 -157 -11 l-115 -4 -3 819 c-1 585
-5 823 -13 833 -6 7 -23 12 -38 11 -14 -1 -69 -4 -120 -5z"/>
<path d="M1109 3355 c-150 -41 -268 -177 -284 -329 -12 -110 -14 -1252 -2
-1346 7 -57 19 -105 39 -145 30 -61 92 -135 114 -135 6 0 17 -6 23 -14 6 -7
44 -21 85 -30 69 -17 77 -17 142 0 65 16 120 44 137 72 12 19 31 14 58 -14 23
-25 28 -26 93 -20 38 4 72 9 77 12 5 3 9 223 9 489 0 424 -2 484 -15 489 -16
6 -322 -10 -363 -20 -22 -4 -23 -7 -20 -122 l3 -117 53 -3 52 -3 0 -217 c-1
-198 -2 -219 -20 -240 -28 -34 -72 -46 -116 -32 -66 22 -64 4 -64 725 0 456 3
653 11 668 19 37 52 57 96 57 34 0 46 -5 67 -31 26 -30 26 -31 26 -219 0 -121
4 -190 10 -192 14 -4 229 9 246 16 11 4 14 46 14 214 0 177 -3 216 -19 260
-10 29 -23 58 -30 65 -6 6 -11 16 -11 22 0 13 -62 73 -107 104 -69 47 -205 63
-304 36z"/>
<path d="M6015 1678 c-16 -6 -37 -14 -45 -19 -8 -5 -24 -13 -35 -18 -23 -11
-74 -64 -99 -105 -32 -51 -45 -134 -46 -288 0 -159 12 -233 46 -288 28 -46 76
-100 88 -100 5 0 17 -6 25 -13 9 -8 40 -21 70 -30 48 -15 141 -17 975 -16 838
0 926 2 971 17 98 34 157 85 198 175 14 34 17 71 17 258 0 200 -2 222 -20 257
-26 50 -87 121 -114 133 -12 5 -28 13 -36 18 -51 30 -100 31 -1026 30 -603 -1
-950 -5 -969 -11z m717 -215 l27 -26 10 26 11 27 129 0 c80 0 132 -4 136 -10
5 -8 11 -8 20 0 8 6 31 10 52 8 l38 -3 3 -223 2 -223 -52 3 -53 3 -3 175 -2
175 -44 -3 c-56 -5 -56 -5 -56 -200 l0 -153 -47 3 -48 3 -5 170 -5 170 -33 3
c-27 3 -34 -1 -42 -23 -9 -23 -14 -26 -52 -23 -35 2 -45 8 -56 31 -15 31 -38
35 -47 8 -9 -29 12 -55 67 -81 164 -78 80 -316 -94 -269 -24 6 -53 22 -65 35
-24 26 -45 32 -38 12 12 -32 -10 -39 -116 -36 l-104 3 0 220 0 220 99 3 c55 1
102 -1 106 -5 4 -4 10 -20 14 -35 8 -35 -15 -58 -60 -58 -27 0 -37 -5 -46 -25
-15 -34 4 -55 52 -55 40 0 50 -11 50 -55 0 -30 -24 -49 -56 -42 -28 5 -54 -15
-54 -42 0 -27 19 -38 73 -43 46 -3 48 -2 55 27 7 27 12 30 48 30 32 0 41 -4
52 -27 18 -37 52 -38 52 -2 0 29 -15 43 -75 74 -48 24 -73 67 -77 134 -3 44 1
53 32 87 39 41 63 49 130 43 30 -3 53 -12 72 -31z m-498 -9 c9 -46 -6 -64 -55
-64 -33 0 -41 -4 -49 -26 -15 -38 3 -54 57 -54 l44 0 -3 -47 -3 -48 -45 -5
-45 -5 -5 -80 -5 -80 -52 -3 -53 -3 0 219 c0 120 3 222 7 225 3 4 50 7 104 7
l97 0 6 -36z m1058 1 c4 -16 10 -70 13 -120 3 -49 9 -106 12 -125 8 -54 19
-13 27 105 4 55 10 116 14 135 8 34 9 35 57 35 l50 0 -3 -70 c-2 -38 -9 -117
-17 -175 -9 -58 -16 -125 -18 -150 l-2 -45 -100 0 -100 0 -3 45 c-1 25 -9 94
-17 155 -8 60 -15 140 -15 178 l0 68 47 -3 c42 -3 47 -6 55 -33z m419 8 c6
-15 14 -72 19 -128 5 -55 14 -124 20 -154 5 -29 10 -74 10 -98 l0 -44 -52 3
-52 3 -11 50 c-8 40 -14 51 -32 53 -23 3 -29 -9 -35 -73 -3 -28 -6 -30 -52
-33 -27 -2 -53 1 -58 6 -5 5 -3 49 6 108 8 54 22 148 30 208 9 59 19 112 22
117 3 5 43 9 90 9 83 0 85 -1 95 -27z m177 15 c8 -8 12 -61 12 -174 0 -179 -2
-174 66 -174 34 0 34 0 34 -45 l0 -45 -105 0 -105 0 0 218 c0 120 3 222 7 225
11 12 78 8 91 -5z"/>
<path d="M7611 1306 c-12 -30 -9 -56 8 -56 14 0 18 22 11 55 l-7 30 -12 -29z"/>
</g>
</svg>
