<?xml version="1.0" standalone="no"?>
<!DOCTYPE svg PUBLIC "-//W3C//DTD SVG 20010904//EN"
 "http://www.w3.org/TR/2001/REC-SVG-20010904/DTD/svg10.dtd">
<svg version="1.0" xmlns="http://www.w3.org/2000/svg"
 width="300.000000pt" height="166.000000pt" viewBox="0 0 300.000000 166.000000"
 preserveAspectRatio="xMidYMid meet">
<metadata>
Created by potrace 1.10, written by Peter Selinger 2001-2011
</metadata>
<g transform="translate(0.000000,166.000000) scale(0.050000,-0.050000)"
fill="#000000" stroke="none">
<path d="M5285 2430 c7 -195 6 -347 -2 -340 -7 7 -49 158 -94 336 l-81 324
-94 6 -94 6 0 -661 0 -661 90 0 89 0 6 353 5 352 75 -267 c42 -148 85 -302 96
-343 20 -71 26 -75 100 -75 l79 0 0 640 c0 352 2 647 5 655 3 8 -39 18 -93 21
l-98 6 11 -352z"/>
<path d="M4510 2722 l-120 -12 -5 -657 -6 -656 206 14 c248 17 235 10 235 123
l0 92 -120 -13 -120 -12 0 198 0 199 85 6 85 6 6 97 6 98 -91 -14 -91 -13 0
181 0 181 58 0 c153 0 182 18 182 113 l0 87 -95 -3 c-52 -2 -149 -9 -215 -15z"/>
<path d="M3905 2646 l-45 -9 0 -660 0 -660 55 11 c66 14 325 51 360 52 17 0
25 34 25 100 0 94 -3 100 -45 92 -25 -6 -79 -15 -121 -22 l-76 -12 6 561 6
561 -60 -3 c-33 -1 -80 -6 -105 -11z"/>
<path d="M3400 2563 c-150 -80 -161 -128 -155 -698 l5 -504 55 -56 c116 -114
356 -43 427 127 45 106 40 991 -5 1068 -61 104 -201 130 -327 63z m160 -623
c0 -476 -9 -524 -90 -493 -48 19 -45 923 4 950 81 45 86 20 86 -457z"/>
<path d="M3005 2502 l-66 -12 -4 -657 -5 -656 90 13 c50 8 97 18 105 23 8 5
15 301 15 658 0 722 13 659 -135 631z"/>
<path d="M2440 2413 l-130 -23 -4 -655 c-3 -541 1 -655 23 -655 15 0 95 13
178 29 309 59 317 78 309 731 -8 626 -16 639 -376 573z m175 -638 l-5 -465
-55 -6 -55 -7 0 472 0 471 60 0 61 0 -6 -465z"/>
<path d="M1944 2345 c-51 -4 -91 -19 -97 -36 -14 -36 -181 -1308 -173 -1316 3
-3 44 -1 91 6 l85 11 13 105 c17 144 28 165 85 165 46 0 51 -9 64 -122 l14
-123 90 13 c50 7 95 16 100 21 5 5 -28 286 -74 625 -45 339 -82 627 -82 641 0
14 -7 23 -15 22 -8 -2 -54 -7 -101 -12z m34 -810 c2 -63 -5 -75 -39 -75 -39 0
-41 8 -30 115 30 279 61 261 69 -40z"/>
<path d="M1255 2265 l-75 -7 0 -661 0 -661 95 11 c52 6 147 17 210 24 l115 12
0 100 c0 85 -5 98 -35 89 -19 -5 -69 -12 -111 -15 l-76 -6 -4 558 c-3 353 -11
559 -24 561 -11 2 -54 -1 -95 -5z"/>
<path d="M708 2231 c-142 -61 -157 -114 -165 -571 -9 -612 17 -720 189 -752
74 -14 188 22 189 59 0 13 13 7 28 -13 19 -26 41 -32 79 -23 l52 13 0 328 0
328 -108 0 c-154 0 -172 -11 -172 -102 0 -65 7 -78 41 -78 38 0 40 -10 35
-153 -7 -167 -40 -222 -104 -168 -46 37 -48 903 -3 940 69 58 101 18 107 -134
l6 -145 89 0 89 0 0 152 c0 282 -142 411 -352 319z"/>
<path d="M3968 1102 c-159 -97 -142 -480 23 -542 30 -12 321 -20 681 -20 802
0 789 -5 787 304 -1 299 7 296 -788 296 -595 0 -646 -3 -703 -38z m192 -130
c0 -15 -18 -32 -40 -38 -22 -6 -40 -20 -40 -32 0 -12 18 -22 40 -22 22 0 40
-13 40 -30 0 -16 -13 -30 -30 -30 -20 0 -30 -20 -30 -60 0 -47 -9 -60 -40 -60
-36 0 -40 13 -40 150 l0 150 70 0 c46 0 70 -9 70 -28z m160 -2 c0 -16 -13 -30
-30 -30 -16 0 -30 -13 -30 -30 0 -16 14 -30 30 -30 17 0 30 -13 30 -30 0 -16
-13 -30 -30 -30 -16 0 -30 -13 -30 -30 0 -16 13 -30 28 -30 15 0 33 -13 39
-30 9 -24 -5 -30 -68 -30 l-79 0 0 150 0 150 70 0 c49 0 70 -9 70 -30z m176 6
c19 -19 24 -19 24 0 0 15 33 24 90 24 67 0 90 -8 90 -30 0 -16 -13 -30 -30
-30 -23 0 -30 -27 -30 -120 0 -93 -7 -120 -30 -120 -23 0 -30 27 -30 120 0
114 -39 170 -66 95 -7 -20 -17 -20 -51 0 -36 21 -43 20 -43 -3 0 -16 18 -35
39 -42 76 -24 76 -156 1 -180 -53 -17 -120 23 -120 71 0 43 51 54 66 14 5 -14
16 -18 24 -10 9 8 -8 37 -37 64 -82 76 -61 171 37 171 23 0 53 -11 66 -24z
m284 -126 c0 -140 -3 -150 -42 -150 -37 0 -41 8 -30 63 6 34 12 101 12 150 0
64 8 87 30 87 24 0 30 -30 30 -150z m87 105 c7 -25 14 -81 15 -125 3 -87 9
-71 28 75 9 68 21 95 44 95 26 0 29 -16 19 -93 -7 -51 -13 -118 -13 -150 0
-52 -6 -57 -70 -57 -64 0 -70 5 -70 57 0 32 -6 99 -13 150 -14 101 36 140 60
48z m282 20 c34 -111 29 -275 -9 -275 -27 0 -40 13 -40 40 0 22 -9 40 -20 40
-11 0 -20 -18 -20 -40 0 -27 -13 -40 -42 -40 -34 0 -39 9 -30 55 6 30 16 98
24 150 13 95 113 147 137 70z m131 -95 c0 -93 7 -120 30 -120 17 0 30 -13 30
-30 0 -21 -21 -30 -70 -30 l-70 0 0 150 c0 137 4 150 40 150 36 0 40 -13 40
-120z"/>
</g>
</svg>
